<?xml version="1.0" encoding="UTF-8" standalone="no"?><svg height="23.063641mm" viewBox="0 0 79.375 23.063641" width="79.375mm" xmlns="http://www.w3.org/2000/svg"><g transform="matrix(1.0127363 .27136186 -.27136186 1.0127363 -32.815405 -321.33155)"><path d="m126.34832 305.81823c5.03928-4.76689 10.69914-17.91892 11.56275-21.71399.76781-3.37408-1.43763 5.63695-1.13589 14.43255.0744 2.17015.89351.59682-4.63774-.19047-4.95301-.70499-9.76823 1.0004-18.13495 5.2977-1.36802.70264 13.9349-6.87775 30.05764-15.76193 9.94685-5.48106 17.06092-7.25533 38.35132-19.07904" fill="none" stroke="#000" stroke-linecap="round" stroke-linejoin="round" stroke-width=".75"/><path d="m143.78104 290.99914c-1.75687-2.18895-4.59082.48783-4.03143 3.73537.70961 4.11965 5.608-1.37609 6.0358-3.45446.17694-.85961.26306-2.06951-.7049-1.68838-2.36263.93028-1.7281 6.58601.67606 5.0264 2.10477-1.3654 4.45337-4.91426 3.94966-5.98953-.49844-1.064-1.9648 4.62619.46606 3.53479 2.43085-1.09141 4.394-4.91984 4.11288-5.87895-.28112-.95912-2.42377 2.75684-.55021 3.63116 1.24023.57878 4.2857-3.26657 4.74755-4.21972.92969-1.91866-1.2207-2.62427-.8374.92613.42138 3.90312 6.79607-4.63959 5.5241-4.3859-1.51151.30146-.69504 4.66832 1.00962 3.17531 1.69916-1.4882 3.72974-4.42163 3.17199-4.85178-.56229-.43366-1.7199 1.47331.0234 2.94664 2.11109 1.78413 1.08565 4.691-.5138 4.79416-.72498.0468-2.05859-.56306-.4918-2.82972 2.06415-2.98618 4.2874-6.48452 4.9054-6.3909 0 0-.93587 1.5154-1.12309 2.61041-.19111 1.11773.56698 2.02167 1.80695 1.34834 1.79406-.97421 2.01039-2.2166 1.65542-3.08096-.35497-.86437-1.58975-1.67458-2.6204-.28247" fill="none" stroke="#000" stroke-linecap="round" stroke-linejoin="round" stroke-width=".75"/></g></svg>